<mxfile host="app.diagrams.net" agent="Mozilla/5.0 (Windows NT 10.0; Win64; x64) AppleWebKit/537.36 (KHTML, like Gecko) Chrome/128.0.0.0 Safari/537.36" version="24.7.7">
  <diagram name="Page-1" id="wBoN0zmitPIiMLEGoSf_">
    <mxGraphModel dx="1099" dy="634" grid="1" gridSize="10" guides="1" tooltips="1" connect="1" arrows="1" fold="1" page="1" pageScale="1" pageWidth="850" pageHeight="1100" math="0" shadow="0">
      <root>
        <mxCell id="0" />
        <mxCell id="1" parent="0" />
        <mxCell id="pZtEg7F4rGI9stdyFQSI-3" value="I need to make an&lt;div&gt;Architectural Design Decision.&lt;div&gt;Maybe I should see what Decisions were&amp;nbsp;&lt;/div&gt;&lt;div&gt;taken previously&lt;/div&gt;&lt;/div&gt;" style="whiteSpace=wrap;html=1;shape=mxgraph.basic.oval_callout;flipV=1;" vertex="1" parent="1">
          <mxGeometry x="260" y="250" width="310" height="90" as="geometry" />
        </mxCell>
        <mxCell id="pZtEg7F4rGI9stdyFQSI-4" value="Previous&lt;div&gt;Design&amp;nbsp;&lt;/div&gt;&lt;div&gt;Decisions&lt;/div&gt;" style="image;html=1;image=img/lib/clip_art/general/Full_Folder_128x128.png;labelPosition=right;verticalLabelPosition=middle;align=left;verticalAlign=middle;" vertex="1" parent="1">
          <mxGeometry x="420" y="415" width="70" height="70" as="geometry" />
        </mxCell>
        <mxCell id="pZtEg7F4rGI9stdyFQSI-14" value="Given the Problem and previous Design Decisions,&lt;div&gt;I can take a informed Decision.&amp;nbsp;&lt;/div&gt;" style="whiteSpace=wrap;html=1;shape=mxgraph.basic.oval_callout;flipV=0;flipH=0;" vertex="1" parent="1">
          <mxGeometry x="270" y="570" width="320" height="80" as="geometry" />
        </mxCell>
        <mxCell id="pZtEg7F4rGI9stdyFQSI-24" value="" style="edgeStyle=orthogonalEdgeStyle;rounded=0;orthogonalLoop=1;jettySize=auto;html=1;" edge="1" parent="1" source="pZtEg7F4rGI9stdyFQSI-18" target="pZtEg7F4rGI9stdyFQSI-23">
          <mxGeometry relative="1" as="geometry" />
        </mxCell>
        <mxCell id="pZtEg7F4rGI9stdyFQSI-33" value="Gives previous similar&lt;div&gt;Design Decisions&lt;/div&gt;&lt;div&gt;to Alice&lt;/div&gt;" style="edgeLabel;html=1;align=center;verticalAlign=middle;resizable=0;points=[];" vertex="1" connectable="0" parent="pZtEg7F4rGI9stdyFQSI-24">
          <mxGeometry x="-0.1098" y="-2" relative="1" as="geometry">
            <mxPoint x="-58" y="3" as="offset" />
          </mxGeometry>
        </mxCell>
        <mxCell id="pZtEg7F4rGI9stdyFQSI-26" style="edgeStyle=orthogonalEdgeStyle;rounded=0;orthogonalLoop=1;jettySize=auto;html=1;curved=1;" edge="1" parent="1" source="pZtEg7F4rGI9stdyFQSI-18" target="pZtEg7F4rGI9stdyFQSI-4">
          <mxGeometry relative="1" as="geometry">
            <Array as="points">
              <mxPoint x="250" y="370" />
              <mxPoint x="420" y="370" />
            </Array>
          </mxGeometry>
        </mxCell>
        <mxCell id="pZtEg7F4rGI9stdyFQSI-28" value="&lt;font style=&quot;font-size: 12px;&quot;&gt;Searches&amp;nbsp;&lt;/font&gt;&lt;span style=&quot;font-size: 12px;&quot;&gt;Old&lt;/span&gt;&lt;div&gt;&lt;font style=&quot;font-size: 12px;&quot;&gt;Documents&lt;/font&gt;&lt;/div&gt;" style="edgeLabel;html=1;align=center;verticalAlign=middle;resizable=0;points=[];" vertex="1" connectable="0" parent="pZtEg7F4rGI9stdyFQSI-26">
          <mxGeometry x="-0.184" y="-1" relative="1" as="geometry">
            <mxPoint x="13" y="19" as="offset" />
          </mxGeometry>
        </mxCell>
        <mxCell id="pZtEg7F4rGI9stdyFQSI-18" value="Bob&lt;div&gt;(Assistant)&lt;/div&gt;" style="image;html=1;image=img/lib/clip_art/people/Suit_Man_Black_128x128.png;labelPosition=left;verticalLabelPosition=middle;align=right;verticalAlign=middle;" vertex="1" parent="1">
          <mxGeometry x="190" y="405" width="80" height="80" as="geometry" />
        </mxCell>
        <mxCell id="pZtEg7F4rGI9stdyFQSI-23" value="Alice" style="image;html=1;image=img/lib/clip_art/people/Suit_Woman_Blue_128x128.png;labelPosition=left;verticalLabelPosition=middle;align=right;verticalAlign=middle;" vertex="1" parent="1">
          <mxGeometry x="190" y="590" width="80" height="80" as="geometry" />
        </mxCell>
        <mxCell id="pZtEg7F4rGI9stdyFQSI-31" style="edgeStyle=orthogonalEdgeStyle;rounded=0;orthogonalLoop=1;jettySize=auto;html=1;entryX=0.5;entryY=0;entryDx=0;entryDy=0;" edge="1" parent="1" source="pZtEg7F4rGI9stdyFQSI-22" target="pZtEg7F4rGI9stdyFQSI-18">
          <mxGeometry relative="1" as="geometry" />
        </mxCell>
        <mxCell id="pZtEg7F4rGI9stdyFQSI-32" value="Asks assistant&lt;div&gt;to get similar&amp;nbsp;&lt;div&gt;Design Decisions&lt;/div&gt;&lt;/div&gt;" style="edgeLabel;html=1;align=right;verticalAlign=middle;resizable=0;points=[];labelPosition=left;verticalLabelPosition=middle;" vertex="1" connectable="0" parent="pZtEg7F4rGI9stdyFQSI-31">
          <mxGeometry x="-0.2222" y="2" relative="1" as="geometry">
            <mxPoint x="-12" y="-1" as="offset" />
          </mxGeometry>
        </mxCell>
        <mxCell id="pZtEg7F4rGI9stdyFQSI-22" value="Alice&lt;br&gt;(Architect)" style="image;html=1;image=img/lib/clip_art/people/Suit_Woman_Blue_128x128.png;labelPosition=left;verticalLabelPosition=middle;align=right;verticalAlign=middle;" vertex="1" parent="1">
          <mxGeometry x="190" y="220" width="80" height="80" as="geometry" />
        </mxCell>
        <mxCell id="pZtEg7F4rGI9stdyFQSI-27" style="edgeStyle=orthogonalEdgeStyle;rounded=0;orthogonalLoop=1;jettySize=auto;html=1;curved=1;exitX=0;exitY=1;exitDx=0;exitDy=0;entryX=0.75;entryY=1;entryDx=0;entryDy=0;" edge="1" parent="1" source="pZtEg7F4rGI9stdyFQSI-4" target="pZtEg7F4rGI9stdyFQSI-18">
          <mxGeometry relative="1" as="geometry">
            <mxPoint x="430" y="485" as="sourcePoint" />
            <mxPoint x="260" y="480" as="targetPoint" />
            <Array as="points">
              <mxPoint x="420" y="520" />
              <mxPoint x="250" y="520" />
            </Array>
          </mxGeometry>
        </mxCell>
        <mxCell id="pZtEg7F4rGI9stdyFQSI-30" value="&lt;span style=&quot;font-size: 12px;&quot;&gt;Retrieves&amp;nbsp;&lt;/span&gt;&lt;span style=&quot;font-size: 12px;&quot;&gt;similar&lt;/span&gt;&lt;div&gt;&lt;font style=&quot;font-size: 12px;&quot;&gt;Decisions&lt;/font&gt;&lt;/div&gt;" style="edgeLabel;html=1;align=center;verticalAlign=middle;resizable=0;points=[];" vertex="1" connectable="0" parent="1">
          <mxGeometry x="340" y="540" as="geometry">
            <mxPoint x="-7" y="-1" as="offset" />
          </mxGeometry>
        </mxCell>
      </root>
    </mxGraphModel>
  </diagram>
</mxfile>
